<svg width="167" height="41" viewBox="0 0 167 41" fill="none" xmlns="http://www.w3.org/2000/svg">
<g clip-path="url(#clip0_38_26)">
<rect width="167" height="41" fill="white"/>
<g clip-path="url(#clip1_38_26)">
<path d="M33.28 26.1866C32.4318 28.1926 31.1051 29.9602 29.4158 31.335C27.7266 32.7098 25.7264 33.6499 23.5899 34.073C21.4535 34.4961 19.2459 34.3895 17.1602 33.7624C15.0745 33.1352 13.1742 32.0067 11.6254 30.4755C10.0766 28.9443 8.92643 27.057 8.27552 24.9786C7.62462 22.9002 7.49276 20.6939 7.89147 18.5528C8.29019 16.4117 9.20734 14.4008 10.5627 12.696C11.9181 10.9912 13.6705 9.64438 15.6667 8.77329M34.3333 21C34.3333 19.249 33.9885 17.5152 33.3184 15.8975C32.6483 14.2798 31.6662 12.81 30.4281 11.5719C29.19 10.3338 27.7201 9.35163 26.1025 8.68157C24.4848 8.0115 22.751 7.66663 21 7.66663V21H34.3333Z" stroke="#7F57F1" stroke-width="4" stroke-linecap="round" stroke-linejoin="round"/>
</g>
<path d="M52.752 19.5723V21.8574H45.3301V19.5723H52.752ZM46.1992 13.7812V28H43.2695V13.7812H46.1992ZM54.8418 13.7812V28H51.9219V13.7812H54.8418ZM62.918 25.6172V20.9102C62.918 20.5716 62.8626 20.2819 62.752 20.041C62.6413 19.7936 62.4688 19.6016 62.2344 19.4648C62.0065 19.3281 61.7103 19.2598 61.3457 19.2598C61.0332 19.2598 60.763 19.3151 60.5352 19.4258C60.3073 19.5299 60.1315 19.6829 60.0078 19.8848C59.8841 20.0801 59.8223 20.3112 59.8223 20.5781H57.0098C57.0098 20.1289 57.1139 19.7025 57.3223 19.2988C57.5306 18.8952 57.8333 18.5404 58.2305 18.2344C58.6276 17.9219 59.0996 17.6777 59.6465 17.502C60.1999 17.3262 60.8184 17.2383 61.502 17.2383C62.3223 17.2383 63.0514 17.375 63.6895 17.6484C64.3275 17.9219 64.8288 18.332 65.1934 18.8789C65.5645 19.4258 65.75 20.1094 65.75 20.9297V25.4512C65.75 26.0306 65.7858 26.5059 65.8574 26.877C65.929 27.2415 66.0332 27.5605 66.1699 27.834V28H63.3281C63.1914 27.7135 63.0872 27.3555 63.0156 26.9258C62.9505 26.4896 62.918 26.0534 62.918 25.6172ZM63.2891 21.5645L63.3086 23.1562H61.7363C61.3652 23.1562 61.043 23.1986 60.7695 23.2832C60.4961 23.3678 60.2715 23.4883 60.0957 23.6445C59.9199 23.7943 59.7897 23.9701 59.7051 24.1719C59.627 24.3737 59.5879 24.5951 59.5879 24.8359C59.5879 25.0768 59.6432 25.2949 59.7539 25.4902C59.8646 25.679 60.0241 25.8288 60.2324 25.9395C60.4408 26.0436 60.6849 26.0957 60.9648 26.0957C61.388 26.0957 61.7559 26.0111 62.0684 25.8418C62.3809 25.6725 62.6217 25.4642 62.791 25.2168C62.9668 24.9694 63.0579 24.735 63.0645 24.5137L63.8066 25.7051C63.7025 25.972 63.5592 26.2487 63.377 26.5352C63.2012 26.8216 62.9766 27.0918 62.7031 27.3457C62.4297 27.5931 62.1009 27.7982 61.7168 27.9609C61.3327 28.1172 60.877 28.1953 60.3496 28.1953C59.679 28.1953 59.0703 28.0618 58.5234 27.7949C57.9831 27.5215 57.5534 27.1471 57.2344 26.6719C56.9219 26.1901 56.7656 25.6432 56.7656 25.0312C56.7656 24.4779 56.8698 23.9863 57.0781 23.5566C57.2865 23.127 57.5924 22.7656 57.9961 22.4727C58.4062 22.1732 58.9173 21.9486 59.5293 21.7988C60.1413 21.6426 60.8509 21.5645 61.6582 21.5645H63.2891ZM67.918 13H70.7305V25.5781L70.4473 28H67.918V13ZM77.4199 22.6094V22.8145C77.4199 23.6022 77.3353 24.3249 77.166 24.9824C77.0033 25.64 76.7493 26.2096 76.4043 26.6914C76.0592 27.1667 75.6296 27.5378 75.1152 27.8047C74.6074 28.0651 74.0085 28.1953 73.3184 28.1953C72.6738 28.1953 72.1139 28.0651 71.6387 27.8047C71.1699 27.5443 70.776 27.1764 70.457 26.7012C70.138 26.2259 69.8809 25.6693 69.6855 25.0312C69.4902 24.3932 69.3438 23.6966 69.2461 22.9414V22.4922C69.3438 21.737 69.4902 21.0404 69.6855 20.4023C69.8809 19.7643 70.138 19.2077 70.457 18.7324C70.776 18.2572 71.1699 17.8893 71.6387 17.6289C72.1074 17.3685 72.6608 17.2383 73.2988 17.2383C73.9954 17.2383 74.6009 17.3717 75.1152 17.6387C75.6361 17.8991 76.0658 18.2702 76.4043 18.752C76.7493 19.2272 77.0033 19.7936 77.166 20.4512C77.3353 21.1022 77.4199 21.8216 77.4199 22.6094ZM74.6074 22.8145V22.6094C74.6074 22.1797 74.5749 21.776 74.5098 21.3984C74.4512 21.0143 74.347 20.679 74.1973 20.3926C74.0475 20.0996 73.8424 19.8685 73.582 19.6992C73.3281 19.5299 72.9993 19.4453 72.5957 19.4453C72.2116 19.4453 71.8861 19.5104 71.6191 19.6406C71.3522 19.7708 71.1309 19.9531 70.9551 20.1875C70.7858 20.4219 70.6589 20.7018 70.5742 21.0273C70.4896 21.3464 70.4375 21.6979 70.418 22.082V23.3613C70.4375 23.8757 70.5221 24.3314 70.6719 24.7285C70.8281 25.1191 71.0625 25.4284 71.375 25.6562C71.694 25.8776 72.1074 25.9883 72.6152 25.9883C73.0124 25.9883 73.3411 25.9102 73.6016 25.7539C73.862 25.5977 74.0638 25.3763 74.207 25.0898C74.3568 24.8034 74.4609 24.4681 74.5195 24.084C74.5781 23.6934 74.6074 23.2702 74.6074 22.8145ZM82.1367 17.4336V28H79.3145V17.4336H82.1367ZM79.1387 14.6797C79.1387 14.2695 79.2819 13.931 79.5684 13.6641C79.8548 13.3971 80.2389 13.2637 80.7207 13.2637C81.196 13.2637 81.5768 13.3971 81.8633 13.6641C82.1562 13.931 82.3027 14.2695 82.3027 14.6797C82.3027 15.0898 82.1562 15.4284 81.8633 15.6953C81.5768 15.9622 81.196 16.0957 80.7207 16.0957C80.2389 16.0957 79.8548 15.9622 79.5684 15.6953C79.2819 15.4284 79.1387 15.0898 79.1387 14.6797ZM89.6367 17.4336V19.4258H83.4844V17.4336H89.6367ZM85.0078 14.8262H87.8203V24.8164C87.8203 25.1224 87.8594 25.3568 87.9375 25.5195C88.0221 25.6823 88.1458 25.7962 88.3086 25.8613C88.4714 25.9199 88.6764 25.9492 88.9238 25.9492C89.0996 25.9492 89.2559 25.9427 89.3926 25.9297C89.5358 25.9102 89.6562 25.8906 89.7539 25.8711L89.7637 27.9414C89.5228 28.0195 89.2624 28.0814 88.9824 28.127C88.7025 28.1725 88.3932 28.1953 88.0547 28.1953C87.4362 28.1953 86.8958 28.0944 86.4336 27.8926C85.9779 27.6842 85.6263 27.3522 85.3789 26.8965C85.1315 26.4408 85.0078 25.8418 85.0078 25.0996V14.8262ZM102.225 13.7812V28H99.3047V13.7812H102.225ZM106.6 13.7812V16.0762H94.998V13.7812H106.6ZM110.223 19.7383V28H107.41V17.4336H110.057L110.223 19.7383ZM113.406 17.3652L113.357 19.9727C113.221 19.9531 113.055 19.9368 112.859 19.9238C112.671 19.9043 112.498 19.8945 112.342 19.8945C111.945 19.8945 111.6 19.9466 111.307 20.0508C111.02 20.1484 110.779 20.2949 110.584 20.4902C110.395 20.6855 110.252 20.9232 110.154 21.2031C110.063 21.4831 110.011 21.8021 109.998 22.1602L109.432 21.9844C109.432 21.3008 109.5 20.6725 109.637 20.0996C109.773 19.5202 109.972 19.0156 110.232 18.5859C110.499 18.1562 110.825 17.8242 111.209 17.5898C111.593 17.3555 112.033 17.2383 112.527 17.2383C112.684 17.2383 112.843 17.2513 113.006 17.2773C113.169 17.2969 113.302 17.3262 113.406 17.3652ZM120.105 25.6172V20.9102C120.105 20.5716 120.05 20.2819 119.939 20.041C119.829 19.7936 119.656 19.6016 119.422 19.4648C119.194 19.3281 118.898 19.2598 118.533 19.2598C118.221 19.2598 117.951 19.3151 117.723 19.4258C117.495 19.5299 117.319 19.6829 117.195 19.8848C117.072 20.0801 117.01 20.3112 117.01 20.5781H114.197C114.197 20.1289 114.301 19.7025 114.51 19.2988C114.718 18.8952 115.021 18.5404 115.418 18.2344C115.815 17.9219 116.287 17.6777 116.834 17.502C117.387 17.3262 118.006 17.2383 118.689 17.2383C119.51 17.2383 120.239 17.375 120.877 17.6484C121.515 17.9219 122.016 18.332 122.381 18.8789C122.752 19.4258 122.938 20.1094 122.938 20.9297V25.4512C122.938 26.0306 122.973 26.5059 123.045 26.877C123.117 27.2415 123.221 27.5605 123.357 27.834V28H120.516C120.379 27.7135 120.275 27.3555 120.203 26.9258C120.138 26.4896 120.105 26.0534 120.105 25.6172ZM120.477 21.5645L120.496 23.1562H118.924C118.553 23.1562 118.23 23.1986 117.957 23.2832C117.684 23.3678 117.459 23.4883 117.283 23.6445C117.107 23.7943 116.977 23.9701 116.893 24.1719C116.814 24.3737 116.775 24.5951 116.775 24.8359C116.775 25.0768 116.831 25.2949 116.941 25.4902C117.052 25.679 117.212 25.8288 117.42 25.9395C117.628 26.0436 117.872 26.0957 118.152 26.0957C118.576 26.0957 118.943 26.0111 119.256 25.8418C119.568 25.6725 119.809 25.4642 119.979 25.2168C120.154 24.9694 120.245 24.735 120.252 24.5137L120.994 25.7051C120.89 25.972 120.747 26.2487 120.564 26.5352C120.389 26.8216 120.164 27.0918 119.891 27.3457C119.617 27.5931 119.288 27.7982 118.904 27.9609C118.52 28.1172 118.064 28.1953 117.537 28.1953C116.867 28.1953 116.258 28.0618 115.711 27.7949C115.171 27.5215 114.741 27.1471 114.422 26.6719C114.109 26.1901 113.953 25.6432 113.953 25.0312C113.953 24.4779 114.057 23.9863 114.266 23.5566C114.474 23.127 114.78 22.7656 115.184 22.4727C115.594 22.1732 116.105 21.9486 116.717 21.7988C117.329 21.6426 118.038 21.5645 118.846 21.5645H120.477ZM129.471 25.998C129.816 25.998 130.122 25.9329 130.389 25.8027C130.656 25.666 130.864 25.4772 131.014 25.2363C131.17 24.9889 131.251 24.6992 131.258 24.3672H133.904C133.898 25.1094 133.699 25.7702 133.309 26.3496C132.918 26.9225 132.394 27.375 131.736 27.707C131.079 28.0326 130.343 28.1953 129.529 28.1953C128.709 28.1953 127.993 28.0586 127.381 27.7852C126.775 27.5117 126.271 27.1341 125.867 26.6523C125.464 26.1641 125.161 25.5977 124.959 24.9531C124.757 24.3021 124.656 23.6055 124.656 22.8633V22.5801C124.656 21.8314 124.757 21.1348 124.959 20.4902C125.161 19.8392 125.464 19.2728 125.867 18.791C126.271 18.3027 126.775 17.9219 127.381 17.6484C127.986 17.375 128.696 17.2383 129.51 17.2383C130.376 17.2383 131.134 17.4043 131.785 17.7363C132.443 18.0684 132.957 18.5436 133.328 19.1621C133.706 19.7741 133.898 20.5 133.904 21.3398H131.258C131.251 20.9883 131.176 20.6693 131.033 20.3828C130.896 20.0964 130.695 19.8685 130.428 19.6992C130.167 19.5234 129.845 19.4355 129.461 19.4355C129.051 19.4355 128.715 19.5234 128.455 19.6992C128.195 19.8685 127.993 20.1029 127.85 20.4023C127.706 20.6953 127.605 21.0306 127.547 21.4082C127.495 21.7793 127.469 22.1699 127.469 22.5801V22.8633C127.469 23.2734 127.495 23.6673 127.547 24.0449C127.599 24.4225 127.697 24.7578 127.84 25.0508C127.99 25.3438 128.195 25.5749 128.455 25.7441C128.715 25.9134 129.054 25.998 129.471 25.998ZM138.348 12.9902V28H135.535V12.9902H138.348ZM145.008 17.4336L140.418 22.668L137.957 25.1582L136.932 23.127L138.885 20.6465L141.629 17.4336H145.008ZM142.088 28L138.963 23.1172L140.906 21.418L145.33 28H142.088ZM150.887 28.1953C150.066 28.1953 149.331 28.0651 148.68 27.8047C148.029 27.5378 147.475 27.1699 147.02 26.7012C146.57 26.2324 146.225 25.6888 145.984 25.0703C145.743 24.4453 145.623 23.7812 145.623 23.0781V22.6875C145.623 21.8867 145.737 21.1543 145.965 20.4902C146.193 19.8262 146.518 19.25 146.941 18.7617C147.371 18.2734 147.892 17.8991 148.504 17.6387C149.116 17.3717 149.806 17.2383 150.574 17.2383C151.323 17.2383 151.987 17.362 152.566 17.6094C153.146 17.8568 153.631 18.2083 154.021 18.6641C154.419 19.1198 154.718 19.6667 154.92 20.3047C155.122 20.9362 155.223 21.6393 155.223 22.4141V23.5859H146.824V21.7109H152.459V21.4961C152.459 21.1055 152.387 20.7572 152.244 20.4512C152.107 20.1387 151.899 19.8913 151.619 19.709C151.339 19.5267 150.981 19.4355 150.545 19.4355C150.174 19.4355 149.855 19.5169 149.588 19.6797C149.321 19.8424 149.103 20.0703 148.934 20.3633C148.771 20.6562 148.647 21.0013 148.562 21.3984C148.484 21.7891 148.445 22.2188 148.445 22.6875V23.0781C148.445 23.5013 148.504 23.8919 148.621 24.25C148.745 24.6081 148.917 24.9173 149.139 25.1777C149.367 25.4382 149.64 25.64 149.959 25.7832C150.285 25.9264 150.652 25.998 151.062 25.998C151.57 25.998 152.042 25.9004 152.479 25.7051C152.921 25.5033 153.302 25.2005 153.621 24.7969L154.988 26.2812C154.767 26.6003 154.464 26.9062 154.08 27.1992C153.702 27.4922 153.247 27.7331 152.713 27.9219C152.179 28.1042 151.57 28.1953 150.887 28.1953ZM159.637 19.7383V28H156.824V17.4336H159.471L159.637 19.7383ZM162.82 17.3652L162.771 19.9727C162.635 19.9531 162.469 19.9368 162.273 19.9238C162.085 19.9043 161.912 19.8945 161.756 19.8945C161.359 19.8945 161.014 19.9466 160.721 20.0508C160.434 20.1484 160.193 20.2949 159.998 20.4902C159.809 20.6855 159.666 20.9232 159.568 21.2031C159.477 21.4831 159.425 21.8021 159.412 22.1602L158.846 21.9844C158.846 21.3008 158.914 20.6725 159.051 20.0996C159.188 19.5202 159.386 19.0156 159.646 18.5859C159.913 18.1562 160.239 17.8242 160.623 17.5898C161.007 17.3555 161.447 17.2383 161.941 17.2383C162.098 17.2383 162.257 17.2513 162.42 17.2773C162.583 17.2969 162.716 17.3262 162.82 17.3652Z" fill="black"/>
</g>
<defs>
<clipPath id="clip0_38_26">
<rect width="167" height="41" fill="white"/>
</clipPath>
<clipPath id="clip1_38_26">
<rect width="32" height="32" fill="white" transform="translate(5 5)"/>
</clipPath>
</defs>
</svg>
